<svg width="50" height="55" viewBox="0 0 50 55" fill="none" xmlns="http://www.w3.org/2000/svg">
<path fill-rule="evenodd" clip-rule="evenodd" d="M45.3906 16.7949L43.7566 18.4289C40.2162 15.343 35.6766 13.617 30.9566 13.617C27.7787 13.617 24.6026 14.434 21.8792 15.8859L28.7779 8.98722C29.3226 9.34977 29.9574 9.5319 30.594 9.5319C31.5013 9.5319 32.4102 9.16935 33.1353 8.44254C34.5872 6.99063 34.5872 4.71999 33.1353 3.26807C32.4085 2.54126 31.5013 2.17871 30.594 2.17871C29.6868 2.17871 28.7779 2.54126 28.0528 3.26807C26.8732 4.53956 26.6911 6.35403 27.5081 7.71573L18.7932 16.4306L17.1591 14.7966L12.7115 19.2442L14.3455 20.8783L5.44851 29.7753C4.90383 29.4128 4.26894 29.2306 3.63234 29.2306C2.72511 29.2306 1.81617 29.5932 1.09106 30.32C-0.36085 31.7719 -0.36085 34.0425 1.09106 35.4945C1.81787 36.1294 2.72511 36.4936 3.63234 36.4936C4.53958 36.4936 5.44851 36.1311 6.17362 35.4042C7.35319 34.2247 7.53532 32.4085 6.7183 30.9566L13.617 24.0579C9.98638 31.0485 10.8034 39.7634 16.1583 45.9353L14.5243 47.6596L19.0638 52.1072L23.5115 47.6596L19.0638 43.2119L17.52 44.7557C12.2553 38.5821 11.983 29.6868 16.4306 23.1506L17.1574 23.8774L21.697 19.4298L20.88 18.703C23.7855 16.6145 27.326 15.5251 30.9566 15.5251C35.2238 15.5251 39.217 17.0689 42.4851 19.7923L40.8511 21.3362L45.3906 25.7838L49.8383 21.3362L45.3906 16.7966V16.7949ZM20.9702 47.6596L19.0638 49.5659L17.1574 47.6596L19.0638 45.7532L20.9702 47.6596ZM29.3226 4.62977C29.6851 4.26722 30.1396 4.08509 30.594 4.08509C31.0485 4.08509 31.5013 4.26722 31.8655 4.62977C32.5923 5.35658 32.5923 6.44595 31.8655 7.17105C31.503 7.5336 31.0485 7.71573 30.594 7.71573C30.1396 7.71573 29.6868 7.5336 29.3226 7.17105C28.5957 6.53616 28.5957 5.35488 29.3226 4.62977ZM4.90213 34.1328C4.53958 34.4953 4.08511 34.6774 3.63064 34.6774C3.17617 34.6774 2.72341 34.4953 2.35915 34.1328C1.9966 33.8604 1.81447 33.4059 1.81447 32.8613C1.81447 32.4068 1.9966 31.954 2.35915 31.5898C2.7217 31.2255 3.17617 31.0451 3.63064 31.0451C4.08511 31.0451 4.53787 31.2272 4.90213 31.5898C5.62894 32.3166 5.62894 33.4962 4.90213 34.1311V34.1328ZM17.0672 21.3328L15.1609 19.4264L17.0672 17.52L18.9736 19.4264L17.0672 21.3328ZM45.3906 23.2391L43.4843 21.3328L45.3906 19.4264L47.297 21.3328L45.3906 23.2391Z" fill="#00B2A0"/>
</svg>
