<svg width="50" height="51" viewBox="0 0 50 51" fill="none" xmlns="http://www.w3.org/2000/svg">
<path fill-rule="evenodd" clip-rule="evenodd" d="M0.557434 19.5254V30.9679H5.46156V40.7761H7.09576V30.9679H19.6696L31.6087 40.629V9.57153L19.5945 19.5254H0.557434ZM2.19317 29.3321V21.1596H8.73149V29.3321H2.19317ZM20.6369 20.784L29.973 13.0484V37.2027L20.2475 29.3337H10.3642V21.1612H20.1816L20.6354 20.7856L20.6369 20.784Z" fill="#00B2A0"/>
<path fill-rule="evenodd" clip-rule="evenodd" d="M42.9209 11.0125L41.745 12.1883C45.5699 15.1823 48.0427 19.8304 48.0427 25.0534C48.0427 30.4159 45.435 35.1698 41.4338 38.1515L42.6173 39.335C46.9082 36.0497 49.6784 30.8758 49.6784 25.0534C49.6784 19.372 47.0386 14.3069 42.9224 11.0125L42.9209 11.0125Z" fill="#00B2A0"/>
<path fill-rule="evenodd" clip-rule="evenodd" d="M37.6687 16.2822L36.4806 17.4703C39.004 19.0647 40.6888 21.8701 40.6888 25.0695C40.6888 28.4099 38.8538 31.3242 36.1418 32.8741L37.333 34.0652C40.327 32.1858 42.3245 28.8652 42.3245 25.0695C42.3245 21.4148 40.4788 18.1939 37.6703 16.2822L37.6687 16.2822Z" fill="#00B2A0"/>
</svg>
